<svg xmlns="http://www.w3.org/2000/svg" width="390" height="844" viewBox="0 0 390 844">
  <rect width="390" height="844" fill="#f5f6f8"/>
  <rect x="18" y="22" width="46" height="46" rx="12" fill="#b5121b"/>
  <text x="41" y="52" fill="#fff" font-family="Arial,sans-serif" font-size="18" font-weight="700" text-anchor="middle">VF</text>
  <text x="77" y="38" fill="#65717d" font-family="Arial,sans-serif" font-size="10" font-weight="700" letter-spacing="1">TACCUINO OPERATIVO</text>
  <text x="77" y="58" fill="#18212b" font-family="Arial,sans-serif" font-size="18" font-weight="700">VVF SmartReport</text>
  <rect x="314" y="32" width="58" height="25" rx="13" fill="#e6f5e9"/>
  <text x="343" y="48" fill="#26633b" font-family="Arial,sans-serif" font-size="10" font-weight="700" text-anchor="middle">Online</text>

  <defs><linearGradient id="red" x1="0" y1="0" x2="1" y2="1"><stop stop-color="#97131a"/><stop offset="1" stop-color="#d82730"/></linearGradient></defs>
  <rect x="18" y="94" width="354" height="168" rx="18" fill="url(#red)"/>
  <text x="42" y="125" fill="#fff0f0" font-family="Arial,sans-serif" font-size="10" font-weight="700" letter-spacing="1">PRONTO ALL'USO</text>
  <text x="42" y="169" fill="#fff" font-family="Arial,sans-serif" font-size="26" font-weight="700">Cosa vuoi fare?</text>
  <text x="42" y="202" fill="#fff0f0" font-family="Arial,sans-serif" font-size="15">I dati restano solo su questo</text>
  <text x="42" y="224" fill="#fff0f0" font-family="Arial,sans-serif" font-size="15">dispositivo, anche senza rete.</text>

  <rect x="18" y="284" width="354" height="84" rx="16" fill="#b5121b"/>
  <rect x="34" y="307" width="38" height="38" rx="11" fill="#ffffff33"/>
  <text x="53" y="334" fill="#fff" font-family="Arial,sans-serif" font-size="26" text-anchor="middle">＋</text>
  <text x="87" y="318" fill="#fff" font-family="Arial,sans-serif" font-size="16" font-weight="700">Nuovo Intervento</text>
  <text x="87" y="341" fill="#ffe6e6" font-family="Arial,sans-serif" font-size="12">Apri un nuovo diario operativo</text>
  <text x="346" y="336" fill="#fff" font-family="Arial,sans-serif" font-size="32" text-anchor="middle">›</text>

  <rect x="18" y="380" width="354" height="84" rx="16" fill="#fff" stroke="#dde2e7"/>
  <rect x="34" y="403" width="38" height="38" rx="11" fill="#fdebec"/>
  <text x="53" y="431" fill="#b5121b" font-family="Arial,sans-serif" font-size="20" text-anchor="middle">▣</text>
  <text x="87" y="414" fill="#18212b" font-family="Arial,sans-serif" font-size="16" font-weight="700">Interventi</text>
  <text x="87" y="437" fill="#65717d" font-family="Arial,sans-serif" font-size="12">Consulta i diari presenti sul dispositivo</text>
  <text x="346" y="432" fill="#18212b" font-family="Arial,sans-serif" font-size="32" text-anchor="middle">›</text>

  <rect x="18" y="476" width="354" height="84" rx="16" fill="#fff" stroke="#dde2e7"/>
  <rect x="34" y="499" width="38" height="38" rx="11" fill="#fdebec"/>
  <text x="53" y="527" fill="#b5121b" font-family="Arial,sans-serif" font-size="21" text-anchor="middle">⚙</text>
  <text x="87" y="510" fill="#18212b" font-family="Arial,sans-serif" font-size="16" font-weight="700">Impostazioni</text>
  <text x="87" y="533" fill="#65717d" font-family="Arial,sans-serif" font-size="12">Privacy, durata e preferenze</text>
  <text x="346" y="528" fill="#18212b" font-family="Arial,sans-serif" font-size="32" text-anchor="middle">›</text>

  <rect x="18" y="774" width="354" height="50" rx="12" fill="#18212b"/>
  <text x="195" y="805" fill="#fff" font-family="Arial,sans-serif" font-size="15" font-weight="700" text-anchor="middle">Installa l'app</text>
</svg>
