<svg xmlns="http://www.w3.org/2000/svg" width="390" height="844" viewBox="0 0 390 844">
  <rect width="390" height="844" fill="#f4f6f8"/>
  <rect x="18" y="18" width="354" height="65" rx="18" fill="#fffffff2" stroke="#fff"/>
  <rect x="27" y="25" width="50" height="50" rx="12" fill="#fff"/>
  <path d="M51 31c-8 10-8 17 0 25 8-8 8-15 0-25z" fill="#e1a600"/><path d="M53 29v30c14-7 18-17 4-30z" fill="#d20d1a"/>
  <text x="88" y="43" fill="#66717c" font-family="Arial,sans-serif" font-size="9" font-weight="700" letter-spacing="1">TACCUINO OPERATIVO</text>
  <text x="88" y="64" fill="#18212b" font-family="Arial,sans-serif" font-size="17" font-weight="700">VVF SmartReport</text>
  <text x="20" y="112" fill="#4d5965" font-family="Arial,sans-serif" font-size="14">← Diario</text>
  <text x="20" y="137" fill="#8e1219" font-family="Arial,sans-serif" font-size="10" font-weight="700" letter-spacing="1">COMPILAZIONE COMPLETA</text>
  <text x="20" y="169" fill="#18212b" font-family="Arial,sans-serif" font-size="25" font-weight="700">Scheda 125/1</text>
  <text x="20" y="193" fill="#596570" font-family="Arial,sans-serif" font-size="13">Le sezioni si aprono solo quando servono.</text>

  <rect x="18" y="214" width="354" height="212" rx="16" fill="#fff" stroke="#e0e5e9"/>
  <text x="37" y="245" fill="#18212b" font-family="Arial,sans-serif" font-size="16" font-weight="700">Dati intervento</text>
  <text x="37" y="270" fill="#354250" font-family="Arial,sans-serif" font-size="11" font-weight="700">NUMERO</text>
  <rect x="37" y="279" width="145" height="40" rx="9" fill="#fff" stroke="#bfc8d1"/><text x="49" y="304" fill="#18212b" font-family="Arial,sans-serif" font-size="14">125</text>
  <text x="199" y="270" fill="#354250" font-family="Arial,sans-serif" font-size="11" font-weight="700">PROGRESSIVO</text>
  <rect x="199" y="279" width="145" height="40" rx="9" fill="#fff" stroke="#bfc8d1"/><text x="211" y="304" fill="#18212b" font-family="Arial,sans-serif" font-size="14">1</text>
  <text x="37" y="341" fill="#354250" font-family="Arial,sans-serif" font-size="11" font-weight="700">TIPOLOGIA</text>
  <rect x="37" y="350" width="307" height="40" rx="9" fill="#fff" stroke="#bfc8d1"/><text x="49" y="375" fill="#7b8791" font-family="Arial,sans-serif" font-size="13">Seleziona tipologia…</text>
  <text x="37" y="407" fill="#354250" font-family="Arial,sans-serif" font-size="11" font-weight="700">COMUNE E INDIRIZZO</text>

  <rect x="18" y="441" width="354" height="57" rx="15" fill="#fff" stroke="#e0e5e9"/>
  <text x="37" y="476" fill="#18212b" font-family="Arial,sans-serif" font-size="15" font-weight="700">📋  Codici intervento</text><text x="279" y="476" fill="#7a8791" font-family="Arial,sans-serif" font-size="11">facoltativi  ›</text>
  <rect x="18" y="509" width="354" height="57" rx="15" fill="#fff" stroke="#e0e5e9"/>
  <text x="37" y="544" fill="#18212b" font-family="Arial,sans-serif" font-size="15" font-weight="700">🗂  Informazioni scheda</text><text x="279" y="544" fill="#7a8791" font-family="Arial,sans-serif" font-size="11">facoltativi  ›</text>
  <rect x="18" y="577" width="354" height="57" rx="15" fill="#fff" stroke="#e0e5e9"/>
  <text x="37" y="612" fill="#18212b" font-family="Arial,sans-serif" font-size="15" font-weight="700">🚒  Squadra e mezzi</text><text x="279" y="612" fill="#7a8791" font-family="Arial,sans-serif" font-size="11">facoltativi  ›</text>
  <rect x="18" y="645" width="354" height="57" rx="15" fill="#fff" stroke="#e0e5e9"/>
  <text x="37" y="680" fill="#18212b" font-family="Arial,sans-serif" font-size="15" font-weight="700">📝  Relazione operativa</text><text x="279" y="680" fill="#7a8791" font-family="Arial,sans-serif" font-size="11">facoltativi  ›</text>
  <rect x="18" y="734" width="354" height="55" rx="12" fill="#bd121b"/>
  <text x="195" y="768" fill="#fff" font-family="Arial,sans-serif" font-size="15" font-weight="700" text-anchor="middle">Salva Scheda Completa</text>
</svg>
